<?xml version="1.0" encoding="UTF-8" standalone="no"?>
<svg
   width="191.35458pt"
   zoomAndPan="magnify"
   viewBox="0 0 191.35458 63.948339"
   height="63.948341pt"
   preserveAspectRatio="xMidYMid"
   version="1.2"
   id="svg48"
   sodipodi:docname="floorp-wordmark-private.svg"
   inkscape:version="1.2.2 (732a01da63, 2022-12-09)"
   xmlns:inkscape="http://www.inkscape.org/namespaces/inkscape"
   xmlns:sodipodi="http://sodipodi.sourceforge.net/DTD/sodipodi-0.dtd"
   xmlns="http://www.w3.org/2000/svg"
   xmlns:svg="http://www.w3.org/2000/svg">
  <sodipodi:namedview
     id="namedview50"
     pagecolor="#505050"
     bordercolor="#eeeeee"
     borderopacity="1"
     inkscape:showpageshadow="0"
     inkscape:pageopacity="0"
     inkscape:pagecheckerboard="0"
     inkscape:deskcolor="#505050"
     inkscape:document-units="pt"
     showgrid="false"
     inkscape:zoom="2.1273152"
     inkscape:cx="141.96298"
     inkscape:cy="40.896619"
     inkscape:window-width="1366"
     inkscape:window-height="715"
     inkscape:window-x="-8"
     inkscape:window-y="-8"
     inkscape:window-maximized="1"
     inkscape:current-layer="svg48" />
  <defs
     id="defs7">
    <g
       id="g2" />
    <clipPath
       xml:id="clip1"
       id="clip1">
      <path
         d="m 169,16 h 31 v 51.003906 h -31 z m 0,0"
         id="path4" />
    </clipPath>
  </defs>
  <g
     xml:id="surface1"
     id="surface1"
     transform="translate(-8.569047,-3.055564)"
     style="fill:context-fill;fill-opacity:1">
    <g
       style="fill:context-fill;fill-opacity:1"
       id="g13">
      <g
         transform="translate(2.490922,54.711814)"
         id="g11"
         style="fill:context-fill;fill-opacity:1">
        <path
           style="stroke:none;fill:context-fill;fill-opacity:1"
           d="M 38.953125,-44.84375 H 11.25 v 17.796875 H 34.796875 V -22.75 H 11.3125 V 1.1875 H 6.078125 v -50.53125 h 32.875 z m 0,0"
           id="path9" />
      </g>
    </g>
    <g
       style="fill:context-fill;fill-opacity:1"
       id="g19">
      <g
         transform="translate(42.175329,54.711814)"
         id="g17"
         style="fill:context-fill;fill-opacity:1">
        <path
           style="stroke:none;fill:context-fill;fill-opacity:1"
           d="m 11.109375,1.1875 h -5.28125 v -52.84375 h 5.28125 z m 0,0"
           id="path15" />
      </g>
    </g>
    <g
       style="fill:context-fill;fill-opacity:1"
       id="g25">
      <g
         transform="translate(59.041203,54.711814)"
         id="g23"
         style="fill:context-fill;fill-opacity:1">
        <path
           style="stroke:none;fill:context-fill;fill-opacity:1"
           d="m 21.03125,-37.828125 c 4.457031,0 7.832031,0.929687 10.125,2.78125 2.289062,1.84375 3.4375,4.621094 3.4375,8.328125 v 16.859375 c 0,7.367187 -4.523438,11.046875 -13.5625,11.046875 h -3.4375 C 8.644531,1.1875 4.171875,-2.492188 4.171875,-9.859375 V -26.71875 c 0,-7.40625 4.472656,-11.109375 13.421875,-11.109375 z m 8.265625,11.234375 c 0,-1.539062 -0.199219,-2.75 -0.59375,-3.625 -0.398437,-0.882812 -0.949219,-1.554688 -1.65625,-2.015625 C 26.347656,-32.703125 25.488281,-33 24.46875,-33.125 c -1.011719,-0.132812 -2.109375,-0.203125 -3.296875,-0.203125 H 17.53125 c -1.199219,0 -2.292969,0.07031 -3.28125,0.203125 -0.992188,0.125 -1.839844,0.421875 -2.546875,0.890625 -0.699219,0.460937 -1.25,1.132813 -1.65625,2.015625 -0.398437,0.875 -0.59375,2.085938 -0.59375,3.625 v 16.078125 c 0,1.636719 0.21875,2.929687 0.65625,3.875 0.445313,0.949219 1.054687,1.679687 1.828125,2.1875 0.769531,0.5 1.640625,0.820313 2.609375,0.953125 0.96875,0.125 1.984375,0.1875 3.046875,0.1875 h 3.5 c 1.195312,0 2.300781,-0.0625 3.3125,-0.1875 1.007812,-0.132812 1.878906,-0.421875 2.609375,-0.859375 0.726563,-0.445313 1.289063,-1.109375 1.6875,-1.984375 0.394531,-0.882812 0.59375,-2.097656 0.59375,-3.640625 z m 0,0"
           id="path21" />
      </g>
    </g>
    <g
       style="fill:context-fill;fill-opacity:1"
       id="g31">
      <g
         transform="translate(97.733499,54.711814)"
         id="g29"
         style="fill:context-fill;fill-opacity:1">
        <path
           style="stroke:none;fill:context-fill;fill-opacity:1"
           d="m 21.03125,-37.828125 c 4.457031,0 7.832031,0.929687 10.125,2.78125 2.289062,1.84375 3.4375,4.621094 3.4375,8.328125 v 16.859375 c 0,7.367187 -4.523438,11.046875 -13.5625,11.046875 h -3.4375 C 8.644531,1.1875 4.171875,-2.492188 4.171875,-9.859375 V -26.71875 c 0,-7.40625 4.472656,-11.109375 13.421875,-11.109375 z m 8.265625,11.234375 c 0,-1.539062 -0.199219,-2.75 -0.59375,-3.625 -0.398437,-0.882812 -0.949219,-1.554688 -1.65625,-2.015625 C 26.347656,-32.703125 25.488281,-33 24.46875,-33.125 c -1.011719,-0.132812 -2.109375,-0.203125 -3.296875,-0.203125 H 17.53125 c -1.199219,0 -2.292969,0.07031 -3.28125,0.203125 -0.992188,0.125 -1.839844,0.421875 -2.546875,0.890625 -0.699219,0.460937 -1.25,1.132813 -1.65625,2.015625 -0.398437,0.875 -0.59375,2.085938 -0.59375,3.625 v 16.078125 c 0,1.636719 0.21875,2.929687 0.65625,3.875 0.445313,0.949219 1.054687,1.679687 1.828125,2.1875 0.769531,0.5 1.640625,0.820313 2.609375,0.953125 0.96875,0.125 1.984375,0.1875 3.046875,0.1875 h 3.5 c 1.195312,0 2.300781,-0.0625 3.3125,-0.1875 1.007812,-0.132812 1.878906,-0.421875 2.609375,-0.859375 0.726563,-0.445313 1.289063,-1.109375 1.6875,-1.984375 0.394531,-0.882812 0.59375,-2.097656 0.59375,-3.640625 z m 0,0"
           id="path27" />
      </g>
    </g>
    <g
       style="fill:context-fill;fill-opacity:1"
       id="g37">
      <g
         transform="translate(136.4258,54.711814)"
         id="g35"
         style="fill:context-fill;fill-opacity:1">
        <path
           style="stroke:none;fill:context-fill;fill-opacity:1"
           d="m 13.296875,-31.609375 c 0.394531,-0.53125 0.8125,-1.050781 1.25,-1.5625 0.445313,-0.507813 0.929687,-1.003906 1.453125,-1.484375 1.0625,-0.882812 2.34375,-1.632812 3.84375,-2.25 1.5,-0.613281 3.347656,-0.921875 5.546875,-0.921875 h 1.0625 v 4.5 h -1.0625 c -1.84375,0 -3.367187,0.199219 -4.5625,0.59375 -1.1875,0.398437 -2.265625,0.992187 -3.234375,1.78125 -0.492188,0.398437 -0.964844,0.839844 -1.421875,1.328125 -0.460937,0.480469 -0.933594,1.027344 -1.421875,1.640625 -1.011719,1.199219 -2.136719,2.589844 -3.375,4.171875 v 25 H 6.078125 v -39.015625 h 4.4375 l 0.59375,9.25 z m 0,0"
           id="path33" />
      </g>
    </g>
    <g
       clip-rule="nonzero"
       clip-path="url(#clip1)"
       id="g45"
       style="fill:context-fill;fill-opacity:1">
      <g
         style="fill:context-fill;fill-opacity:1"
         id="g43">
        <g
           transform="translate(164.20487,54.711814)"
           id="g41"
           style="fill:context-fill;fill-opacity:1">
          <path
             style="stroke:none;fill:context-fill;fill-opacity:1"
             d="m 22.21875,-37.828125 c 9,0 13.5,3.507813 13.5,10.515625 v 17.859375 c 0,3.523437 -1.148438,6.179687 -3.4375,7.96875 C 29.988281,0.296875 26.632812,1.1875 22.21875,1.1875 H 10.65625 V 13.828125 H 5.421875 V -27.3125 c 0,-7.007812 4.472656,-10.515625 13.421875,-10.515625 z m 8.140625,11.171875 c 0,-1.539062 -0.199219,-2.75 -0.59375,-3.625 -0.398437,-0.882812 -0.949219,-1.554688 -1.65625,-2.015625 -0.710937,-0.46875 -1.558594,-0.769531 -2.546875,-0.90625 -0.992188,-0.132813 -2.105469,-0.203125 -3.34375,-0.203125 h -3.375 c -1.230469,0 -2.355469,0.07031 -3.375,0.203125 -1.011719,0.136719 -1.882812,0.4375 -2.609375,0.90625 -0.730469,0.460937 -1.292969,1.132813 -1.6875,2.015625 -0.398437,0.875 -0.59375,2.085938 -0.59375,3.625 v 23.609375 h 11.71875 c 1.050781,0 2.070313,-0.070313 3.0625,-0.21875 1,-0.15625 1.859375,-0.472656 2.578125,-0.953125 0.726562,-0.488281 1.3125,-1.1875 1.75,-2.09375 0.445312,-0.90625 0.671875,-2.109375 0.671875,-3.609375 z m 0,0"
             id="path39" />
        </g>
      </g>
    </g>
  </g>
</svg>
