<?xml version="1.0" standalone="no"?>
<!DOCTYPE svg PUBLIC "-//W3C//DTD SVG 20010904//EN"
 "http://www.w3.org/TR/2001/REC-SVG-20010904/DTD/svg10.dtd">
<svg version="1.0" xmlns="http://www.w3.org/2000/svg"
 width="192.000000pt" height="192.000000pt" viewBox="0 0 192.000000 192.000000"
 preserveAspectRatio="xMidYMid meet">

<g transform="translate(0.000000,192.000000) scale(0.100000,-0.100000)"
fill="context-fill" stroke="none">
<path d="M525 1766 c-27 -12 -63 -37 -80 -54 -33 -34 -370 -612 -391 -670 -17
-47 -17 -117 0 -164 21 -59 358 -638 391 -671 16 -16 52 -41 80 -53 50 -24 52
-24 435 -24 383 0 385 0 435 24 28 12 64 37 80 53 33 33 370 612 391 671 17
47 17 117 0 164 -21 58 -358 636 -391 670 -16 17 -52 42 -80 54 -50 24 -52 24
-435 24 -383 0 -385 0 -435 -24z m788 -206 c35 -27 142 -209 130 -221 -5 -5
-173 -10 -373 -11 l-365 -3 0 -140 0 -140 462 -3 463 -2 15 -30 c8 -16 15 -39
15 -51 0 -24 -61 -139 -83 -157 -10 -8 -139 -13 -443 -14 l-429 -3 -3 -209
c-1 -134 -6 -214 -13 -223 -18 -21 -56 -15 -88 15 -40 36 -341 560 -341 592 0
33 301 556 340 593 l30 27 329 0 c316 0 329 -1 354 -20z"/>
</g>
</svg>
